<svg xmlns="http://www.w3.org/2000/svg" xmlns:xlink="http://www.w3.org/1999/xlink" width="500" zoomAndPan="magnify" viewBox="0 0 375 374.999991" height="500" preserveAspectRatio="xMidYMid meet" version="1.0"><path fill="#f58634" d="M 212.328125 162.84375 C 207.316406 160.371094 205.234375 154.246094 207.707031 149.226562 L 254.554688 54.128906 L 272.789062 63.121094 L 225.9375 158.21875 C 223.46875 163.238281 217.347656 165.316406 212.328125 162.84375 Z M 269.332031 22.164062 L 269.617188 22.394531 C 348.398438 65.5 379.898438 163.503906 339.820312 244.851562 C 328.074219 268.695312 311.445312 288.539062 291.734375 303.757812 C 258.511719 329.40625 216.539062 341.917969 174.449219 338.375 L 225.261719 235.226562 C 232.851562 220.390625 236.175781 217.933594 250.4375 211.941406 C 265.402344 205.644531 270.535156 204.363281 278.535156 190.464844 C 293.832031 163.890625 310.300781 115.183594 320.617188 86.566406 L 308.328125 80.804688 C 295.339844 109.277344 288.644531 126.203125 275.050781 152.824219 C 243.742188 214.140625 239.160156 183.074219 216.335938 206.128906 C 213.695312 208.792969 203.898438 226.351562 192.246094 248.425781 L 138.195312 358.148438 L 133.277344 368.128906 C 184.78125 382.554688 242.042969 375.230469 289.996094 343.15625 C 322.738281 321.261719 346.488281 290.941406 360.28125 256.992188 C 359.566406 258.667969 358.824219 260.339844 358.054688 262.011719 C 398.960938 173.367188 361.960938 67.753906 273.921875 24.339844 C 272.398438 23.585938 270.863281 22.863281 269.332031 22.15625 Z M 238.398438 175.699219 C 233.386719 173.226562 231.304688 167.09375 233.777344 162.082031 L 280.625 66.976562 L 298.859375 75.96875 L 252.007812 171.066406 C 249.539062 176.085938 243.417969 178.164062 238.398438 175.691406 Z M 238.398438 175.699219 " fill-opacity="1" fill-rule="evenodd"/><path fill="#69b550" d="M 10 169.753906 L 13.195312 165.640625 C 15.515625 161.964844 14.429688 164.171875 16.636719 159.671875 L 29.609375 132.917969 C 45.449219 104.667969 83.808594 55.296875 128.082031 41.835938 C 97.976562 63.363281 53.984375 93.730469 25.21875 172.800781 C -0.75 244.15625 16.527344 298.667969 51.617188 324.53125 C 84.121094 348.488281 125.945312 354.394531 142.460938 322.246094 C 155.355469 297.152344 169.296875 270.007812 182.785156 243.753906 C 193.1875 221.058594 201.132812 202.589844 201.644531 198.875 C 206.019531 166.722656 178.605469 182.003906 208.140625 119.816406 C 220.964844 92.8125 230.304688 77.191406 244.960938 49.542969 L 232.914062 43.304688 C 216.507812 68.921875 187.925781 111.660156 176.179688 139.984375 C 170.035156 154.796875 172.140625 159.648438 176.265625 175.355469 C 180.199219 190.328125 180.277344 194.460938 173.136719 209.515625 L 132.828125 288.09375 C 114.027344 324.75 77.238281 315.003906 53.496094 287.855469 C 34.441406 266.070312 26.765625 231.652344 38.472656 194.648438 C 58.523438 183.480469 84.3125 185.570312 112.511719 167.070312 C 159.804688 136.042969 167.722656 48.613281 221.929688 11.203125 C 161.4375 -35.089844 -46.699219 45.113281 10.007812 169.753906 Z M 10 169.753906 " fill-opacity="1" fill-rule="evenodd"/></svg>