<svg xmlns="http://www.w3.org/2000/svg" xmlns:xlink="http://www.w3.org/1999/xlink" width="500" zoomAndPan="magnify" viewBox="0 0 375 374.999991" height="500" preserveAspectRatio="xMidYMid meet" version="1.0"><defs><g/><clipPath id="bea42d4857"><path d="M 169 96 L 250 96 L 250 214.542969 L 169 214.542969 Z M 169 96 " clip-rule="nonzero"/></clipPath><clipPath id="d932eeffec"><path d="M 124.777344 88.542969 L 207 88.542969 L 207 205 L 124.777344 205 Z M 124.777344 88.542969 " clip-rule="nonzero"/></clipPath></defs><g fill="#333333" fill-opacity="1"><g transform="translate(118.962198, 261.451272)"><g><path d="M 4.46875 0 L 2.421875 0 L 2.421875 -17.609375 L 12.234375 -17.609375 L 12.234375 -15.796875 L 4.46875 -15.796875 L 4.46875 -9.34375 L 11.765625 -9.34375 L 11.765625 -7.53125 L 4.46875 -7.53125 Z M 4.46875 0 "/></g></g></g><g fill="#333333" fill-opacity="1"><g transform="translate(133.495311, 261.451272)"><g><path d="M 17.703125 -8.828125 C 17.703125 -6.015625 16.988281 -3.800781 15.5625 -2.1875 C 14.144531 -0.570312 12.164062 0.234375 9.625 0.234375 C 7.03125 0.234375 5.023438 -0.554688 3.609375 -2.140625 C 2.203125 -3.722656 1.5 -5.960938 1.5 -8.859375 C 1.5 -11.722656 2.207031 -13.941406 3.625 -15.515625 C 5.039062 -17.097656 7.050781 -17.890625 9.65625 -17.890625 C 12.175781 -17.890625 14.144531 -17.085938 15.5625 -15.484375 C 16.988281 -13.878906 17.703125 -11.660156 17.703125 -8.828125 Z M 3.671875 -8.828125 C 3.671875 -6.441406 4.175781 -4.628906 5.1875 -3.390625 C 6.207031 -2.160156 7.6875 -1.546875 9.625 -1.546875 C 11.570312 -1.546875 13.046875 -2.160156 14.046875 -3.390625 C 15.046875 -4.617188 15.546875 -6.429688 15.546875 -8.828125 C 15.546875 -11.203125 15.046875 -13 14.046875 -14.21875 C 13.054688 -15.445312 11.59375 -16.0625 9.65625 -16.0625 C 7.695312 -16.0625 6.207031 -15.441406 5.1875 -14.203125 C 4.175781 -12.972656 3.671875 -11.179688 3.671875 -8.828125 Z M 3.671875 -8.828125 "/></g></g></g><g fill="#333333" fill-opacity="1"><g transform="translate(154.508583, 261.451272)"><g><path d="M 17.703125 -8.828125 C 17.703125 -6.015625 16.988281 -3.800781 15.5625 -2.1875 C 14.144531 -0.570312 12.164062 0.234375 9.625 0.234375 C 7.03125 0.234375 5.023438 -0.554688 3.609375 -2.140625 C 2.203125 -3.722656 1.5 -5.960938 1.5 -8.859375 C 1.5 -11.722656 2.207031 -13.941406 3.625 -15.515625 C 5.039062 -17.097656 7.050781 -17.890625 9.65625 -17.890625 C 12.175781 -17.890625 14.144531 -17.085938 15.5625 -15.484375 C 16.988281 -13.878906 17.703125 -11.660156 17.703125 -8.828125 Z M 3.671875 -8.828125 C 3.671875 -6.441406 4.175781 -4.628906 5.1875 -3.390625 C 6.207031 -2.160156 7.6875 -1.546875 9.625 -1.546875 C 11.570312 -1.546875 13.046875 -2.160156 14.046875 -3.390625 C 15.046875 -4.617188 15.546875 -6.429688 15.546875 -8.828125 C 15.546875 -11.203125 15.046875 -13 14.046875 -14.21875 C 13.054688 -15.445312 11.59375 -16.0625 9.65625 -16.0625 C 7.695312 -16.0625 6.207031 -15.441406 5.1875 -14.203125 C 4.175781 -12.972656 3.671875 -11.179688 3.671875 -8.828125 Z M 3.671875 -8.828125 "/></g></g></g><g fill="#333333" fill-opacity="1"><g transform="translate(175.521853, 261.451272)"><g><path d="M 16.484375 -8.96875 C 16.484375 -6.0625 15.691406 -3.835938 14.109375 -2.296875 C 12.535156 -0.765625 10.265625 0 7.296875 0 L 2.421875 0 L 2.421875 -17.609375 L 7.8125 -17.609375 C 10.550781 -17.609375 12.679688 -16.847656 14.203125 -15.328125 C 15.722656 -13.816406 16.484375 -11.695312 16.484375 -8.96875 Z M 14.3125 -8.90625 C 14.3125 -11.195312 13.734375 -12.925781 12.578125 -14.09375 C 11.429688 -15.257812 9.71875 -15.84375 7.4375 -15.84375 L 4.46875 -15.84375 L 4.46875 -1.765625 L 6.96875 -1.765625 C 9.40625 -1.765625 11.238281 -2.363281 12.46875 -3.5625 C 13.695312 -4.769531 14.3125 -6.550781 14.3125 -8.90625 Z M 14.3125 -8.90625 "/></g></g></g><g fill="#333333" fill-opacity="1"><g transform="translate(195.306547, 261.451272)"><g><path d="M 13.609375 -4.046875 L 11 -4.046875 L 11 0 L 9.078125 0 L 9.078125 -4.046875 L 0.515625 -4.046875 L 0.515625 -5.796875 L 8.875 -17.703125 L 11 -17.703125 L 11 -5.859375 L 13.609375 -5.859375 Z M 9.078125 -5.859375 L 9.078125 -11.71875 C 9.078125 -12.863281 9.117188 -14.160156 9.203125 -15.609375 L 9.109375 -15.609375 C 8.722656 -14.835938 8.359375 -14.203125 8.015625 -13.703125 L 2.515625 -5.859375 Z M 9.078125 -5.859375 "/></g></g></g><g fill="#333333" fill-opacity="1"><g transform="translate(211.212781, 261.451272)"><g><path d="M 13.5 0 L 11.296875 -5.609375 L 4.234375 -5.609375 L 2.078125 0 L 0 0 L 6.96875 -17.6875 L 8.6875 -17.6875 L 15.609375 0 Z M 10.65625 -7.4375 L 8.609375 -12.90625 C 8.347656 -13.59375 8.078125 -14.4375 7.796875 -15.4375 C 7.617188 -14.664062 7.363281 -13.820312 7.03125 -12.90625 L 4.96875 -7.4375 Z M 10.65625 -7.4375 "/></g></g></g><g fill="#333333" fill-opacity="1"><g transform="translate(228.624616, 261.451272)"><g><path d="M 2.421875 0 L 2.421875 -17.609375 L 4.46875 -17.609375 L 4.46875 -1.859375 L 12.234375 -1.859375 L 12.234375 0 Z M 2.421875 0 "/></g></g></g><g fill="#333333" fill-opacity="1"><g transform="translate(243.229999, 261.451272)"><g><path d="M 2.421875 0 L 2.421875 -17.609375 L 4.46875 -17.609375 L 4.46875 -1.859375 L 12.234375 -1.859375 L 12.234375 0 Z M 2.421875 0 "/></g></g></g><g fill="#333333" fill-opacity="1"><g transform="translate(65.537945, 277.08549)"><g><path d="M 2.609375 -7.859375 L 1.78125 -5.03125 L 1.203125 -5.03125 L 1.59375 -7.859375 Z M 4.484375 -7.859375 L 3.65625 -5.03125 L 3.078125 -5.03125 L 3.46875 -7.859375 Z M 4.484375 -7.859375 "/></g></g></g><g fill="#333333" fill-opacity="1"><g transform="translate(69.792515, 277.08549)"><g><path d="M 4.90625 -2.28125 C 4.90625 -1.519531 4.65625 -0.929688 4.15625 -0.515625 C 3.65625 -0.0976562 2.945312 0.109375 2.03125 0.109375 C 1.644531 0.109375 1.304688 0.0820312 1.015625 0.03125 C 0.734375 -0.0195312 0.460938 -0.109375 0.203125 -0.234375 L 0.203125 -1.140625 C 0.785156 -0.835938 1.394531 -0.6875 2.03125 -0.6875 C 2.613281 -0.6875 3.078125 -0.820312 3.421875 -1.09375 C 3.765625 -1.363281 3.9375 -1.738281 3.9375 -2.21875 C 3.9375 -2.5 3.835938 -2.742188 3.640625 -2.953125 C 3.453125 -3.171875 3.101562 -3.425781 2.59375 -3.71875 C 2.050781 -4.019531 1.675781 -4.320312 1.46875 -4.625 C 1.257812 -4.925781 1.15625 -5.285156 1.15625 -5.703125 C 1.15625 -6.378906 1.390625 -6.925781 1.859375 -7.34375 C 2.335938 -7.769531 2.960938 -7.984375 3.734375 -7.984375 C 4.085938 -7.984375 4.414062 -7.945312 4.71875 -7.875 C 5.03125 -7.800781 5.359375 -7.6875 5.703125 -7.53125 L 5.34375 -6.71875 C 5.101562 -6.851562 4.835938 -6.957031 4.546875 -7.03125 C 4.253906 -7.113281 3.984375 -7.15625 3.734375 -7.15625 C 3.253906 -7.15625 2.867188 -7.03125 2.578125 -6.78125 C 2.285156 -6.53125 2.140625 -6.191406 2.140625 -5.765625 C 2.140625 -5.578125 2.164062 -5.410156 2.21875 -5.265625 C 2.28125 -5.128906 2.378906 -5 2.515625 -4.875 C 2.648438 -4.757812 2.90625 -4.59375 3.28125 -4.375 C 3.8125 -4.0625 4.164062 -3.8125 4.34375 -3.625 C 4.53125 -3.445312 4.671875 -3.25 4.765625 -3.03125 C 4.859375 -2.8125 4.90625 -2.5625 4.90625 -2.28125 Z M 4.90625 -2.28125 "/></g></g></g><g fill="#333333" fill-opacity="1"><g transform="translate(75.321842, 277.08549)"><g><path d="M 5.828125 0 L 4.9375 0 L 5.703125 -3.703125 L 2.15625 -3.703125 L 1.375 0 L 0.46875 0 L 2.125 -7.859375 L 3.03125 -7.859375 L 2.328125 -4.515625 L 5.890625 -4.515625 L 6.59375 -7.859375 L 7.5 -7.859375 Z M 5.828125 0 "/></g></g></g><g fill="#333333" fill-opacity="1"><g transform="translate(82.792888, 277.08549)"><g><path d="M 4.375 -2.5 L 1.703125 -2.5 L 0.390625 0 L -0.625 0 L 3.671875 -7.859375 L 4.609375 -7.859375 L 5.59375 0 L 4.671875 0 Z M 4.28125 -3.34375 L 4.09375 -4.953125 C 4 -5.585938 3.945312 -6.210938 3.9375 -6.828125 C 3.800781 -6.515625 3.65625 -6.203125 3.5 -5.890625 C 3.34375 -5.578125 2.894531 -4.726562 2.15625 -3.34375 Z M 4.28125 -3.34375 "/></g></g></g><g fill="#333333" fill-opacity="1"><g transform="translate(88.908496, 277.08549)"><g><path d="M 2.078125 -3.265625 L 1.375 0 L 0.46875 0 L 2.125 -7.859375 L 3.84375 -7.859375 C 5.445312 -7.859375 6.25 -7.203125 6.25 -5.890625 C 6.25 -4.640625 5.585938 -3.835938 4.265625 -3.484375 L 5.546875 0 L 4.546875 0 L 3.421875 -3.265625 Z M 2.859375 -7.0625 C 2.492188 -5.289062 2.285156 -4.289062 2.234375 -4.0625 L 3.140625 -4.0625 C 3.828125 -4.0625 4.359375 -4.210938 4.734375 -4.515625 C 5.109375 -4.816406 5.296875 -5.253906 5.296875 -5.828125 C 5.296875 -6.253906 5.175781 -6.566406 4.9375 -6.765625 C 4.695312 -6.960938 4.300781 -7.0625 3.75 -7.0625 Z M 2.859375 -7.0625 "/></g></g></g><g fill="#333333" fill-opacity="1"><g transform="translate(95.174708, 277.08549)"><g><path d="M 0.46875 0 L 2.140625 -7.859375 L 3.03125 -7.859375 L 1.359375 0 Z M 0.46875 0 "/></g></g></g><g fill="#333333" fill-opacity="1"><g transform="translate(98.181414, 277.08549)"><g><path d="M 6.125 0 L 5.15625 0 L 2.671875 -6.578125 L 2.640625 -6.578125 C 2.523438 -5.785156 2.394531 -5.035156 2.25 -4.328125 L 1.328125 0 L 0.453125 0 L 2.109375 -7.859375 L 3.078125 -7.859375 L 5.546875 -1.296875 L 5.578125 -1.296875 C 5.691406 -2.097656 5.820312 -2.828125 5.96875 -3.484375 L 6.90625 -7.859375 L 7.78125 -7.859375 Z M 6.125 0 "/></g></g></g><g fill="#333333" fill-opacity="1"><g transform="translate(105.916018, 277.08549)"><g><path d="M 4.421875 -4.125 L 6.890625 -4.125 L 6.0625 -0.296875 C 5.28125 -0.0234375 4.523438 0.109375 3.796875 0.109375 C 2.847656 0.109375 2.113281 -0.148438 1.59375 -0.671875 C 1.070312 -1.191406 0.8125 -1.914062 0.8125 -2.84375 C 0.8125 -3.800781 0.992188 -4.675781 1.359375 -5.46875 C 1.722656 -6.257812 2.222656 -6.875 2.859375 -7.3125 C 3.503906 -7.757812 4.222656 -7.984375 5.015625 -7.984375 C 5.429688 -7.984375 5.820312 -7.945312 6.1875 -7.875 C 6.5625 -7.800781 6.929688 -7.6875 7.296875 -7.53125 L 6.953125 -6.703125 C 6.671875 -6.828125 6.367188 -6.929688 6.046875 -7.015625 C 5.734375 -7.109375 5.390625 -7.15625 5.015625 -7.15625 C 4.410156 -7.15625 3.859375 -6.972656 3.359375 -6.609375 C 2.859375 -6.242188 2.46875 -5.734375 2.1875 -5.078125 C 1.914062 -4.429688 1.78125 -3.707031 1.78125 -2.90625 C 1.78125 -2.21875 1.960938 -1.675781 2.328125 -1.28125 C 2.703125 -0.894531 3.21875 -0.703125 3.875 -0.703125 C 4.425781 -0.703125 4.894531 -0.773438 5.28125 -0.921875 L 5.796875 -3.296875 L 4.234375 -3.296875 Z M 4.421875 -4.125 "/></g></g></g><g fill="#333333" fill-opacity="1"><g transform="translate(113.370927, 277.08549)"><g/></g></g><g fill="#333333" fill-opacity="1"><g transform="translate(116.232408, 277.08549)"><g><path d="M 1.390625 0 L 0.46875 0 L 2.125 -7.859375 L 6.078125 -7.859375 L 5.921875 -7.046875 L 2.859375 -7.046875 L 2.265625 -4.171875 L 5.109375 -4.171875 L 4.9375 -3.34375 L 2.09375 -3.34375 Z M 1.390625 0 "/></g></g></g><g fill="#333333" fill-opacity="1"><g transform="translate(121.433633, 277.08549)"><g><path d="M 7.59375 -4.875 C 7.59375 -3.914062 7.429688 -3.050781 7.109375 -2.28125 C 6.796875 -1.519531 6.34375 -0.929688 5.75 -0.515625 C 5.164062 -0.0976562 4.488281 0.109375 3.71875 0.109375 C 2.800781 0.109375 2.085938 -0.15625 1.578125 -0.6875 C 1.066406 -1.226562 0.8125 -1.984375 0.8125 -2.953125 C 0.8125 -3.898438 0.984375 -4.765625 1.328125 -5.546875 C 1.671875 -6.328125 2.140625 -6.925781 2.734375 -7.34375 C 3.335938 -7.769531 4.015625 -7.984375 4.765625 -7.984375 C 5.640625 -7.984375 6.328125 -7.707031 6.828125 -7.15625 C 7.335938 -6.601562 7.59375 -5.84375 7.59375 -4.875 Z M 4.703125 -7.171875 C 4.140625 -7.171875 3.632812 -6.988281 3.1875 -6.625 C 2.738281 -6.257812 2.390625 -5.753906 2.140625 -5.109375 C 1.898438 -4.460938 1.78125 -3.75 1.78125 -2.96875 C 1.78125 -2.257812 1.957031 -1.703125 2.3125 -1.296875 C 2.664062 -0.898438 3.144531 -0.703125 3.75 -0.703125 C 4.289062 -0.703125 4.773438 -0.875 5.203125 -1.21875 C 5.640625 -1.570312 5.984375 -2.078125 6.234375 -2.734375 C 6.484375 -3.390625 6.609375 -4.113281 6.609375 -4.90625 C 6.609375 -5.613281 6.4375 -6.164062 6.09375 -6.5625 C 5.757812 -6.96875 5.296875 -7.171875 4.703125 -7.171875 Z M 4.703125 -7.171875 "/></g></g></g><g fill="#333333" fill-opacity="1"><g transform="translate(129.367249, 277.08549)"><g><path d="M 7.59375 -4.875 C 7.59375 -3.914062 7.429688 -3.050781 7.109375 -2.28125 C 6.796875 -1.519531 6.34375 -0.929688 5.75 -0.515625 C 5.164062 -0.0976562 4.488281 0.109375 3.71875 0.109375 C 2.800781 0.109375 2.085938 -0.15625 1.578125 -0.6875 C 1.066406 -1.226562 0.8125 -1.984375 0.8125 -2.953125 C 0.8125 -3.898438 0.984375 -4.765625 1.328125 -5.546875 C 1.671875 -6.328125 2.140625 -6.925781 2.734375 -7.34375 C 3.335938 -7.769531 4.015625 -7.984375 4.765625 -7.984375 C 5.640625 -7.984375 6.328125 -7.707031 6.828125 -7.15625 C 7.335938 -6.601562 7.59375 -5.84375 7.59375 -4.875 Z M 4.703125 -7.171875 C 4.140625 -7.171875 3.632812 -6.988281 3.1875 -6.625 C 2.738281 -6.257812 2.390625 -5.753906 2.140625 -5.109375 C 1.898438 -4.460938 1.78125 -3.75 1.78125 -2.96875 C 1.78125 -2.257812 1.957031 -1.703125 2.3125 -1.296875 C 2.664062 -0.898438 3.144531 -0.703125 3.75 -0.703125 C 4.289062 -0.703125 4.773438 -0.875 5.203125 -1.21875 C 5.640625 -1.570312 5.984375 -2.078125 6.234375 -2.734375 C 6.484375 -3.390625 6.609375 -4.113281 6.609375 -4.90625 C 6.609375 -5.613281 6.4375 -6.164062 6.09375 -6.5625 C 5.757812 -6.96875 5.296875 -7.171875 4.703125 -7.171875 Z M 4.703125 -7.171875 "/></g></g></g><g fill="#333333" fill-opacity="1"><g transform="translate(137.300865, 277.08549)"><g><path d="M 7 -4.71875 C 7 -3.78125 6.804688 -2.953125 6.421875 -2.234375 C 6.046875 -1.515625 5.507812 -0.960938 4.8125 -0.578125 C 4.113281 -0.191406 3.296875 0 2.359375 0 L 0.46875 0 L 2.125 -7.859375 L 3.96875 -7.859375 C 4.957031 -7.859375 5.707031 -7.585938 6.21875 -7.046875 C 6.738281 -6.515625 7 -5.738281 7 -4.71875 Z M 2.421875 -0.796875 C 3.140625 -0.796875 3.769531 -0.957031 4.3125 -1.28125 C 4.863281 -1.613281 5.285156 -2.078125 5.578125 -2.671875 C 5.878906 -3.273438 6.03125 -3.960938 6.03125 -4.734375 C 6.03125 -5.503906 5.84375 -6.085938 5.46875 -6.484375 C 5.101562 -6.878906 4.5625 -7.078125 3.84375 -7.078125 L 2.890625 -7.078125 L 1.546875 -0.796875 Z M 2.421875 -0.796875 "/></g></g></g><g fill="#333333" fill-opacity="1"><g transform="translate(144.637443, 277.08549)"><g><path d="M 1.5625 -1.28125 L 1.609375 -1.15625 C 1.203125 -0.3125 0.71875 0.546875 0.15625 1.421875 L -0.53125 1.421875 C -0.0820312 0.390625 0.28125 -0.507812 0.5625 -1.28125 Z M 1.5625 -1.28125 "/></g></g></g><g fill="#333333" fill-opacity="1"><g transform="translate(147.283775, 277.08549)"><g/></g></g><g fill="#333333" fill-opacity="1"><g transform="translate(150.145255, 277.08549)"><g><path d="M 1.390625 0 L 0.46875 0 L 2.125 -7.859375 L 6.078125 -7.859375 L 5.921875 -7.046875 L 2.859375 -7.046875 L 2.265625 -4.171875 L 5.109375 -4.171875 L 4.9375 -3.34375 L 2.09375 -3.34375 Z M 1.390625 0 "/></g></g></g><g fill="#333333" fill-opacity="1"><g transform="translate(155.34648, 277.08549)"><g><path d="M 0.46875 0 L 2.140625 -7.859375 L 3.03125 -7.859375 L 1.359375 0 Z M 0.46875 0 "/></g></g></g><g fill="#333333" fill-opacity="1"><g transform="translate(158.353186, 277.08549)"><g><path d="M 4.421875 -4.125 L 6.890625 -4.125 L 6.0625 -0.296875 C 5.28125 -0.0234375 4.523438 0.109375 3.796875 0.109375 C 2.847656 0.109375 2.113281 -0.148438 1.59375 -0.671875 C 1.070312 -1.191406 0.8125 -1.914062 0.8125 -2.84375 C 0.8125 -3.800781 0.992188 -4.675781 1.359375 -5.46875 C 1.722656 -6.257812 2.222656 -6.875 2.859375 -7.3125 C 3.503906 -7.757812 4.222656 -7.984375 5.015625 -7.984375 C 5.429688 -7.984375 5.820312 -7.945312 6.1875 -7.875 C 6.5625 -7.800781 6.929688 -7.6875 7.296875 -7.53125 L 6.953125 -6.703125 C 6.671875 -6.828125 6.367188 -6.929688 6.046875 -7.015625 C 5.734375 -7.109375 5.390625 -7.15625 5.015625 -7.15625 C 4.410156 -7.15625 3.859375 -6.972656 3.359375 -6.609375 C 2.859375 -6.242188 2.46875 -5.734375 2.1875 -5.078125 C 1.914062 -4.429688 1.78125 -3.707031 1.78125 -2.90625 C 1.78125 -2.21875 1.960938 -1.675781 2.328125 -1.28125 C 2.703125 -0.894531 3.21875 -0.703125 3.875 -0.703125 C 4.425781 -0.703125 4.894531 -0.773438 5.28125 -0.921875 L 5.796875 -3.296875 L 4.234375 -3.296875 Z M 4.421875 -4.125 "/></g></g></g><g fill="#333333" fill-opacity="1"><g transform="translate(165.808096, 277.08549)"><g><path d="M 5.828125 0 L 4.9375 0 L 5.703125 -3.703125 L 2.15625 -3.703125 L 1.375 0 L 0.46875 0 L 2.125 -7.859375 L 3.03125 -7.859375 L 2.328125 -4.515625 L 5.890625 -4.515625 L 6.59375 -7.859375 L 7.5 -7.859375 Z M 5.828125 0 "/></g></g></g><g fill="#333333" fill-opacity="1"><g transform="translate(173.279142, 277.08549)"><g><path d="M 2.625 0 L 1.6875 0 L 3.1875 -7.046875 L 1 -7.046875 L 1.171875 -7.859375 L 6.46875 -7.859375 L 6.3125 -7.046875 L 4.125 -7.046875 Z M 2.625 0 "/></g></g></g><g fill="#333333" fill-opacity="1"><g transform="translate(178.765439, 277.08549)"><g><path d="M 0.46875 0 L 2.140625 -7.859375 L 3.03125 -7.859375 L 1.359375 0 Z M 0.46875 0 "/></g></g></g><g fill="#333333" fill-opacity="1"><g transform="translate(181.772145, 277.08549)"><g><path d="M 6.125 0 L 5.15625 0 L 2.671875 -6.578125 L 2.640625 -6.578125 C 2.523438 -5.785156 2.394531 -5.035156 2.25 -4.328125 L 1.328125 0 L 0.453125 0 L 2.109375 -7.859375 L 3.078125 -7.859375 L 5.546875 -1.296875 L 5.578125 -1.296875 C 5.691406 -2.097656 5.820312 -2.828125 5.96875 -3.484375 L 6.90625 -7.859375 L 7.78125 -7.859375 Z M 6.125 0 "/></g></g></g><g fill="#333333" fill-opacity="1"><g transform="translate(189.506749, 277.08549)"><g><path d="M 4.421875 -4.125 L 6.890625 -4.125 L 6.0625 -0.296875 C 5.28125 -0.0234375 4.523438 0.109375 3.796875 0.109375 C 2.847656 0.109375 2.113281 -0.148438 1.59375 -0.671875 C 1.070312 -1.191406 0.8125 -1.914062 0.8125 -2.84375 C 0.8125 -3.800781 0.992188 -4.675781 1.359375 -5.46875 C 1.722656 -6.257812 2.222656 -6.875 2.859375 -7.3125 C 3.503906 -7.757812 4.222656 -7.984375 5.015625 -7.984375 C 5.429688 -7.984375 5.820312 -7.945312 6.1875 -7.875 C 6.5625 -7.800781 6.929688 -7.6875 7.296875 -7.53125 L 6.953125 -6.703125 C 6.671875 -6.828125 6.367188 -6.929688 6.046875 -7.015625 C 5.734375 -7.109375 5.390625 -7.15625 5.015625 -7.15625 C 4.410156 -7.15625 3.859375 -6.972656 3.359375 -6.609375 C 2.859375 -6.242188 2.46875 -5.734375 2.1875 -5.078125 C 1.914062 -4.429688 1.78125 -3.707031 1.78125 -2.90625 C 1.78125 -2.21875 1.960938 -1.675781 2.328125 -1.28125 C 2.703125 -0.894531 3.21875 -0.703125 3.875 -0.703125 C 4.425781 -0.703125 4.894531 -0.773438 5.28125 -0.921875 L 5.796875 -3.296875 L 4.234375 -3.296875 Z M 4.421875 -4.125 "/></g></g></g><g fill="#333333" fill-opacity="1"><g transform="translate(196.961658, 277.08549)"><g/></g></g><g fill="#333333" fill-opacity="1"><g transform="translate(199.823139, 277.08549)"><g><path d="M 5.828125 0 L 4.9375 0 L 5.703125 -3.703125 L 2.15625 -3.703125 L 1.375 0 L 0.46875 0 L 2.125 -7.859375 L 3.03125 -7.859375 L 2.328125 -4.515625 L 5.890625 -4.515625 L 6.59375 -7.859375 L 7.5 -7.859375 Z M 5.828125 0 "/></g></g></g><g fill="#333333" fill-opacity="1"><g transform="translate(207.294185, 277.08549)"><g><path d="M 7.5625 -7.859375 L 6.46875 -2.671875 C 6.269531 -1.722656 5.914062 -1.019531 5.40625 -0.5625 C 4.894531 -0.113281 4.195312 0.109375 3.3125 0.109375 C 2.488281 0.109375 1.875 -0.078125 1.46875 -0.453125 C 1.070312 -0.828125 0.875 -1.363281 0.875 -2.0625 C 0.875 -2.351562 0.921875 -2.710938 1.015625 -3.140625 L 2.03125 -7.859375 L 2.9375 -7.859375 L 1.921875 -3.078125 C 1.835938 -2.691406 1.796875 -2.351562 1.796875 -2.0625 C 1.796875 -1.644531 1.925781 -1.3125 2.1875 -1.0625 C 2.445312 -0.820312 2.835938 -0.703125 3.359375 -0.703125 C 3.972656 -0.703125 4.453125 -0.859375 4.796875 -1.171875 C 5.140625 -1.484375 5.390625 -2.003906 5.546875 -2.734375 L 6.65625 -7.859375 Z M 7.5625 -7.859375 "/></g></g></g><g fill="#333333" fill-opacity="1"><g transform="translate(214.738337, 277.08549)"><g><path d="M 6.125 0 L 5.15625 0 L 2.671875 -6.578125 L 2.640625 -6.578125 C 2.523438 -5.785156 2.394531 -5.035156 2.25 -4.328125 L 1.328125 0 L 0.453125 0 L 2.109375 -7.859375 L 3.078125 -7.859375 L 5.546875 -1.296875 L 5.578125 -1.296875 C 5.691406 -2.097656 5.820312 -2.828125 5.96875 -3.484375 L 6.90625 -7.859375 L 7.78125 -7.859375 Z M 6.125 0 "/></g></g></g><g fill="#333333" fill-opacity="1"><g transform="translate(222.472941, 277.08549)"><g><path d="M 4.421875 -4.125 L 6.890625 -4.125 L 6.0625 -0.296875 C 5.28125 -0.0234375 4.523438 0.109375 3.796875 0.109375 C 2.847656 0.109375 2.113281 -0.148438 1.59375 -0.671875 C 1.070312 -1.191406 0.8125 -1.914062 0.8125 -2.84375 C 0.8125 -3.800781 0.992188 -4.675781 1.359375 -5.46875 C 1.722656 -6.257812 2.222656 -6.875 2.859375 -7.3125 C 3.503906 -7.757812 4.222656 -7.984375 5.015625 -7.984375 C 5.429688 -7.984375 5.820312 -7.945312 6.1875 -7.875 C 6.5625 -7.800781 6.929688 -7.6875 7.296875 -7.53125 L 6.953125 -6.703125 C 6.671875 -6.828125 6.367188 -6.929688 6.046875 -7.015625 C 5.734375 -7.109375 5.390625 -7.15625 5.015625 -7.15625 C 4.410156 -7.15625 3.859375 -6.972656 3.359375 -6.609375 C 2.859375 -6.242188 2.46875 -5.734375 2.1875 -5.078125 C 1.914062 -4.429688 1.78125 -3.707031 1.78125 -2.90625 C 1.78125 -2.21875 1.960938 -1.675781 2.328125 -1.28125 C 2.703125 -0.894531 3.21875 -0.703125 3.875 -0.703125 C 4.425781 -0.703125 4.894531 -0.773438 5.28125 -0.921875 L 5.796875 -3.296875 L 4.234375 -3.296875 Z M 4.421875 -4.125 "/></g></g></g><g fill="#333333" fill-opacity="1"><g transform="translate(229.92785, 277.08549)"><g><path d="M 4.421875 0 L 0.46875 0 L 2.125 -7.859375 L 6.078125 -7.859375 L 5.90625 -7.046875 L 2.859375 -7.046875 L 2.328125 -4.515625 L 5.171875 -4.515625 L 5.015625 -3.703125 L 2.171875 -3.703125 L 1.546875 -0.8125 L 4.59375 -0.8125 Z M 4.421875 0 "/></g></g></g><g fill="#333333" fill-opacity="1"><g transform="translate(235.559373, 277.08549)"><g><path d="M 2.078125 -3.265625 L 1.375 0 L 0.46875 0 L 2.125 -7.859375 L 3.84375 -7.859375 C 5.445312 -7.859375 6.25 -7.203125 6.25 -5.890625 C 6.25 -4.640625 5.585938 -3.835938 4.265625 -3.484375 L 5.546875 0 L 4.546875 0 L 3.421875 -3.265625 Z M 2.859375 -7.0625 C 2.492188 -5.289062 2.285156 -4.289062 2.234375 -4.0625 L 3.140625 -4.0625 C 3.828125 -4.0625 4.359375 -4.210938 4.734375 -4.515625 C 5.109375 -4.816406 5.296875 -5.253906 5.296875 -5.828125 C 5.296875 -6.253906 5.175781 -6.566406 4.9375 -6.765625 C 4.695312 -6.960938 4.300781 -7.0625 3.75 -7.0625 Z M 2.859375 -7.0625 "/></g></g></g><g fill="#333333" fill-opacity="1"><g transform="translate(241.825585, 277.08549)"><g/></g></g><g fill="#333333" fill-opacity="1"><g transform="translate(244.687066, 277.08549)"><g><path d="M 0.296875 -2.515625 L 0.484375 -3.375 L 3.0625 -3.375 L 2.875 -2.515625 Z M 0.296875 -2.515625 "/></g></g></g><g fill="#333333" fill-opacity="1"><g transform="translate(248.12407, 277.08549)"><g/></g></g><g fill="#333333" fill-opacity="1"><g transform="translate(250.98555, 277.08549)"><g><path d="M 2.625 0 L 1.6875 0 L 3.1875 -7.046875 L 1 -7.046875 L 1.171875 -7.859375 L 6.46875 -7.859375 L 6.3125 -7.046875 L 4.125 -7.046875 Z M 2.625 0 "/></g></g></g><g fill="#333333" fill-opacity="1"><g transform="translate(256.471847, 277.08549)"><g><path d="M 7.59375 -4.875 C 7.59375 -3.914062 7.429688 -3.050781 7.109375 -2.28125 C 6.796875 -1.519531 6.34375 -0.929688 5.75 -0.515625 C 5.164062 -0.0976562 4.488281 0.109375 3.71875 0.109375 C 2.800781 0.109375 2.085938 -0.15625 1.578125 -0.6875 C 1.066406 -1.226562 0.8125 -1.984375 0.8125 -2.953125 C 0.8125 -3.898438 0.984375 -4.765625 1.328125 -5.546875 C 1.671875 -6.328125 2.140625 -6.925781 2.734375 -7.34375 C 3.335938 -7.769531 4.015625 -7.984375 4.765625 -7.984375 C 5.640625 -7.984375 6.328125 -7.707031 6.828125 -7.15625 C 7.335938 -6.601562 7.59375 -5.84375 7.59375 -4.875 Z M 4.703125 -7.171875 C 4.140625 -7.171875 3.632812 -6.988281 3.1875 -6.625 C 2.738281 -6.257812 2.390625 -5.753906 2.140625 -5.109375 C 1.898438 -4.460938 1.78125 -3.75 1.78125 -2.96875 C 1.78125 -2.257812 1.957031 -1.703125 2.3125 -1.296875 C 2.664062 -0.898438 3.144531 -0.703125 3.75 -0.703125 C 4.289062 -0.703125 4.773438 -0.875 5.203125 -1.21875 C 5.640625 -1.570312 5.984375 -2.078125 6.234375 -2.734375 C 6.484375 -3.390625 6.609375 -4.113281 6.609375 -4.90625 C 6.609375 -5.613281 6.4375 -6.164062 6.09375 -6.5625 C 5.757812 -6.96875 5.296875 -7.171875 4.703125 -7.171875 Z M 4.703125 -7.171875 "/></g></g></g><g fill="#333333" fill-opacity="1"><g transform="translate(264.405463, 277.08549)"><g><path d="M 4.421875 -4.125 L 6.890625 -4.125 L 6.0625 -0.296875 C 5.28125 -0.0234375 4.523438 0.109375 3.796875 0.109375 C 2.847656 0.109375 2.113281 -0.148438 1.59375 -0.671875 C 1.070312 -1.191406 0.8125 -1.914062 0.8125 -2.84375 C 0.8125 -3.800781 0.992188 -4.675781 1.359375 -5.46875 C 1.722656 -6.257812 2.222656 -6.875 2.859375 -7.3125 C 3.503906 -7.757812 4.222656 -7.984375 5.015625 -7.984375 C 5.429688 -7.984375 5.820312 -7.945312 6.1875 -7.875 C 6.5625 -7.800781 6.929688 -7.6875 7.296875 -7.53125 L 6.953125 -6.703125 C 6.671875 -6.828125 6.367188 -6.929688 6.046875 -7.015625 C 5.734375 -7.109375 5.390625 -7.15625 5.015625 -7.15625 C 4.410156 -7.15625 3.859375 -6.972656 3.359375 -6.609375 C 2.859375 -6.242188 2.46875 -5.734375 2.1875 -5.078125 C 1.914062 -4.429688 1.78125 -3.707031 1.78125 -2.90625 C 1.78125 -2.21875 1.960938 -1.675781 2.328125 -1.28125 C 2.703125 -0.894531 3.21875 -0.703125 3.875 -0.703125 C 4.425781 -0.703125 4.894531 -0.773438 5.28125 -0.921875 L 5.796875 -3.296875 L 4.234375 -3.296875 Z M 4.421875 -4.125 "/></g></g></g><g fill="#333333" fill-opacity="1"><g transform="translate(271.860373, 277.08549)"><g><path d="M 4.421875 0 L 0.46875 0 L 2.125 -7.859375 L 6.078125 -7.859375 L 5.90625 -7.046875 L 2.859375 -7.046875 L 2.328125 -4.515625 L 5.171875 -4.515625 L 5.015625 -3.703125 L 2.171875 -3.703125 L 1.546875 -0.8125 L 4.59375 -0.8125 Z M 4.421875 0 "/></g></g></g><g fill="#333333" fill-opacity="1"><g transform="translate(277.491896, 277.08549)"><g><path d="M 2.625 0 L 1.6875 0 L 3.1875 -7.046875 L 1 -7.046875 L 1.171875 -7.859375 L 6.46875 -7.859375 L 6.3125 -7.046875 L 4.125 -7.046875 Z M 2.625 0 "/></g></g></g><g fill="#333333" fill-opacity="1"><g transform="translate(282.978193, 277.08549)"><g><path d="M 5.828125 0 L 4.9375 0 L 5.703125 -3.703125 L 2.15625 -3.703125 L 1.375 0 L 0.46875 0 L 2.125 -7.859375 L 3.03125 -7.859375 L 2.328125 -4.515625 L 5.890625 -4.515625 L 6.59375 -7.859375 L 7.5 -7.859375 Z M 5.828125 0 "/></g></g></g><g fill="#333333" fill-opacity="1"><g transform="translate(290.449239, 277.08549)"><g><path d="M 4.421875 0 L 0.46875 0 L 2.125 -7.859375 L 6.078125 -7.859375 L 5.90625 -7.046875 L 2.859375 -7.046875 L 2.328125 -4.515625 L 5.171875 -4.515625 L 5.015625 -3.703125 L 2.171875 -3.703125 L 1.546875 -0.8125 L 4.59375 -0.8125 Z M 4.421875 0 "/></g></g></g><g fill="#333333" fill-opacity="1"><g transform="translate(296.080762, 277.08549)"><g><path d="M 2.078125 -3.265625 L 1.375 0 L 0.46875 0 L 2.125 -7.859375 L 3.84375 -7.859375 C 5.445312 -7.859375 6.25 -7.203125 6.25 -5.890625 C 6.25 -4.640625 5.585938 -3.835938 4.265625 -3.484375 L 5.546875 0 L 4.546875 0 L 3.421875 -3.265625 Z M 2.859375 -7.0625 C 2.492188 -5.289062 2.285156 -4.289062 2.234375 -4.0625 L 3.140625 -4.0625 C 3.828125 -4.0625 4.359375 -4.210938 4.734375 -4.515625 C 5.109375 -4.816406 5.296875 -5.253906 5.296875 -5.828125 C 5.296875 -6.253906 5.175781 -6.566406 4.9375 -6.765625 C 4.695312 -6.960938 4.300781 -7.0625 3.75 -7.0625 Z M 2.859375 -7.0625 "/></g></g></g><g fill="#333333" fill-opacity="1"><g transform="translate(302.346974, 277.08549)"><g><path d="M 2.984375 -7.859375 L 1.515625 -2.171875 L 0.921875 -2.171875 C 1.097656 -3.265625 1.414062 -5.160156 1.875 -7.859375 Z M 0.234375 -0.421875 C 0.234375 -0.691406 0.300781 -0.90625 0.4375 -1.0625 C 0.582031 -1.21875 0.773438 -1.296875 1.015625 -1.296875 C 1.179688 -1.296875 1.3125 -1.242188 1.40625 -1.140625 C 1.507812 -1.046875 1.5625 -0.90625 1.5625 -0.71875 C 1.5625 -0.46875 1.488281 -0.257812 1.34375 -0.09375 C 1.207031 0.0703125 1.023438 0.15625 0.796875 0.15625 C 0.617188 0.15625 0.476562 0.101562 0.375 0 C 0.28125 -0.09375 0.234375 -0.234375 0.234375 -0.421875 Z M 0.234375 -0.421875 "/></g></g></g><g fill="#333333" fill-opacity="1"><g transform="translate(305.197697, 277.08549)"><g><path d="M 2.609375 -7.859375 L 1.78125 -5.03125 L 1.203125 -5.03125 L 1.59375 -7.859375 Z M 4.484375 -7.859375 L 3.65625 -5.03125 L 3.078125 -5.03125 L 3.46875 -7.859375 Z M 4.484375 -7.859375 "/></g></g></g><g clip-path="url(#bea42d4857)"><path fill="#f58634" d="M 195.695312 143.621094 C 194.023438 142.792969 193.324219 140.75 194.152344 139.070312 L 209.800781 107.308594 L 215.890625 110.3125 L 200.242188 142.074219 C 199.414062 143.75 197.371094 144.445312 195.695312 143.621094 Z M 214.734375 96.632812 L 214.832031 96.710938 C 241.144531 111.109375 251.664062 143.839844 238.28125 171.007812 C 234.355469 178.972656 228.800781 185.601562 222.21875 190.683594 C 211.121094 199.25 197.101562 203.429688 183.042969 202.246094 L 200.015625 167.796875 C 202.550781 162.839844 203.660156 162.019531 208.425781 160.019531 C 213.421875 157.914062 215.136719 157.488281 217.808594 152.84375 C 222.917969 143.96875 228.417969 127.699219 231.867188 118.144531 L 227.761719 116.21875 C 223.421875 125.726562 221.1875 131.382812 216.644531 140.273438 C 206.1875 160.753906 204.65625 150.375 197.035156 158.078125 C 196.152344 158.964844 192.878906 164.832031 188.988281 172.203125 L 170.933594 208.851562 L 169.292969 212.183594 C 186.496094 217 205.621094 214.554688 221.636719 203.84375 C 232.574219 196.53125 240.507812 186.402344 245.113281 175.0625 C 244.875 175.625 244.625 176.183594 244.371094 176.742188 C 258.035156 147.132812 245.675781 111.859375 216.269531 97.359375 C 215.761719 97.109375 215.246094 96.867188 214.734375 96.628906 Z M 204.402344 147.914062 C 202.730469 147.085938 202.035156 145.039062 202.859375 143.363281 L 218.507812 111.601562 L 224.597656 114.605469 L 208.949219 146.367188 C 208.125 148.042969 206.078125 148.734375 204.402344 147.910156 Z M 204.402344 147.914062 " fill-opacity="1" fill-rule="evenodd"/></g><g clip-path="url(#d932eeffec)"><path fill="#69b550" d="M 128.117188 145.925781 L 129.183594 144.554688 C 129.957031 143.324219 129.59375 144.0625 130.332031 142.558594 L 134.664062 133.625 C 139.957031 124.1875 152.769531 107.699219 167.554688 103.203125 C 157.5 110.394531 142.808594 120.535156 133.199219 146.945312 C 124.523438 170.777344 130.296875 188.984375 142.015625 197.625 C 152.871094 205.625 166.839844 207.597656 172.359375 196.859375 C 176.664062 188.476562 181.324219 179.414062 185.828125 170.644531 C 189.300781 163.0625 191.957031 156.894531 192.128906 155.652344 C 193.589844 144.914062 184.429688 150.019531 194.296875 129.25 C 198.582031 120.230469 201.699219 115.011719 206.59375 105.777344 L 202.570312 103.695312 C 197.089844 112.25 187.546875 126.523438 183.621094 135.984375 C 181.570312 140.933594 182.273438 142.550781 183.648438 147.800781 C 184.964844 152.796875 184.988281 154.179688 182.605469 159.207031 L 169.140625 185.453125 C 162.863281 197.695312 150.574219 194.441406 142.644531 185.371094 C 136.277344 178.097656 133.714844 166.601562 137.625 154.242188 C 144.320312 150.511719 152.9375 151.210938 162.355469 145.03125 C 178.152344 134.667969 180.796875 105.464844 198.902344 92.972656 C 178.695312 77.511719 109.175781 104.296875 128.117188 145.925781 Z M 128.117188 145.925781 " fill-opacity="1" fill-rule="evenodd"/></g></svg>